<?xml version="1.0" encoding="UTF-8" standalone="no"?>
<!DOCTYPE svg PUBLIC "-//W3C//DTD SVG 1.1//EN"
 "http://www.w3.org/Graphics/SVG/1.1/DTD/svg11.dtd">
<!-- Generated by graphviz version 3.0.0 (20220226.1711)
 -->
<!-- Pages: 1 -->
<svg width="791pt" height="946pt"
 viewBox="0.00 0.00 790.93 946.00" xmlns="http://www.w3.org/2000/svg" xmlns:xlink="http://www.w3.org/1999/xlink">
<g id="graph0" class="graph" transform="scale(1 1) rotate(0) translate(4 942)">
<g id="a_graph0"><a xlink:href="https://ringtheory.herokuapp.com/" xlink:title="Field and domain properties&lt;br/&gt;(© Database of Ring Theory; Last updated 2022&#45;10&#45;12)">
<polygon fill="white" stroke="transparent" points="-4,4 -4,-942 786.93,-942 786.93,4 -4,4"/>
<text text-anchor="start" x="314.47" y="-922.8" font-family="Times,serif" font-size="14.00">Field and domain properties</text>
<text text-anchor="start" x="238.97" y="-907.8" font-family="Times,serif" font-size="14.00">(© Database of Ring Theory; Last updated 2022&#45;10&#45;12)</text>
</a>
</g>
<!-- unique factorization domain -->
<g id="node1" class="node">
<title>unique factorization domain</title>
<ellipse fill="none" stroke="black" cx="110.49" cy="-378" rx="110.48" ry="18"/>
<text text-anchor="middle" x="110.49" y="-374.3" font-family="Times,serif" font-size="14.00">unique factorization domain</text>
</g>
<!-- Krull domain -->
<g id="node2" class="node">
<title>Krull domain</title>
<ellipse fill="none" stroke="black" cx="110.49" cy="-306" rx="58.49" ry="18"/>
<text text-anchor="middle" x="110.49" y="-302.3" font-family="Times,serif" font-size="14.00">Krull domain</text>
</g>
<!-- unique factorization domain&#45;&gt;Krull domain -->
<g id="edge1" class="edge">
<title>unique factorization domain&#45;&gt;Krull domain</title>
<path fill="none" stroke="black" d="M110.49,-359.7C110.49,-351.98 110.49,-342.71 110.49,-334.11"/>
<polygon fill="black" stroke="black" points="113.99,-334.1 110.49,-324.1 106.99,-334.1 113.99,-334.1"/>
</g>
<!-- GCD domain -->
<g id="node11" class="node">
<title>GCD domain</title>
<ellipse fill="none" stroke="black" cx="245.49" cy="-306" rx="58.49" ry="18"/>
<text text-anchor="middle" x="245.49" y="-302.3" font-family="Times,serif" font-size="14.00">GCD domain</text>
</g>
<!-- unique factorization domain&#45;&gt;GCD domain -->
<g id="edge7" class="edge">
<title>unique factorization domain&#45;&gt;GCD domain</title>
<path fill="none" stroke="black" d="M142.14,-360.59C161.74,-350.43 187.02,-337.32 207.67,-326.61"/>
<polygon fill="black" stroke="black" points="209.53,-329.59 216.8,-321.88 206.31,-323.37 209.53,-329.59"/>
</g>
<!-- normal domain -->
<g id="node16" class="node">
<title>normal domain</title>
<ellipse fill="none" stroke="black" cx="341.49" cy="-162" rx="65.79" ry="18"/>
<text text-anchor="middle" x="341.49" y="-158.3" font-family="Times,serif" font-size="14.00">normal domain</text>
</g>
<!-- Krull domain&#45;&gt;normal domain -->
<g id="edge32" class="edge">
<title>Krull domain&#45;&gt;normal domain</title>
<path fill="none" stroke="black" d="M131.7,-289C145.08,-278.72 162.58,-264.91 177.49,-252 195.08,-236.77 196.01,-228.72 215.49,-216 238.63,-200.89 266.79,-188.56 290.62,-179.61"/>
<polygon fill="black" stroke="black" points="292.01,-182.83 300.2,-176.1 289.6,-176.26 292.01,-182.83"/>
</g>
<!-- Mori domain -->
<g id="node24" class="node">
<title>Mori domain</title>
<ellipse fill="none" stroke="black" cx="110.49" cy="-234" rx="57.69" ry="18"/>
<text text-anchor="middle" x="110.49" y="-230.3" font-family="Times,serif" font-size="14.00">Mori domain</text>
</g>
<!-- Krull domain&#45;&gt;Mori domain -->
<g id="edge24" class="edge">
<title>Krull domain&#45;&gt;Mori domain</title>
<path fill="none" stroke="black" d="M110.49,-287.7C110.49,-279.98 110.49,-270.71 110.49,-262.11"/>
<polygon fill="black" stroke="black" points="113.99,-262.1 110.49,-252.1 106.99,-262.1 113.99,-262.1"/>
</g>
<!-- Euclidean domain -->
<g id="node3" class="node">
<title>Euclidean domain</title>
<ellipse fill="none" stroke="black" cx="220.49" cy="-522" rx="75.29" ry="18"/>
<text text-anchor="middle" x="220.49" y="-518.3" font-family="Times,serif" font-size="14.00">Euclidean domain</text>
</g>
<!-- principal ideal domain -->
<g id="node4" class="node">
<title>principal ideal domain</title>
<ellipse fill="none" stroke="black" cx="295.49" cy="-450" rx="90.98" ry="18"/>
<text text-anchor="middle" x="295.49" y="-446.3" font-family="Times,serif" font-size="14.00">principal ideal domain</text>
</g>
<!-- Euclidean domain&#45;&gt;principal ideal domain -->
<g id="edge2" class="edge">
<title>Euclidean domain&#45;&gt;principal ideal domain</title>
<path fill="none" stroke="black" d="M238.26,-504.41C247.81,-495.5 259.75,-484.36 270.25,-474.56"/>
<polygon fill="black" stroke="black" points="272.66,-477.09 277.58,-467.71 267.89,-471.98 272.66,-477.09"/>
</g>
<!-- principal ideal domain&#45;&gt;unique factorization domain -->
<g id="edge5" class="edge">
<title>principal ideal domain&#45;&gt;unique factorization domain</title>
<path fill="none" stroke="black" d="M255.35,-433.81C227.95,-423.44 191.4,-409.62 161.88,-398.44"/>
<polygon fill="black" stroke="black" points="162.75,-395.03 152.16,-394.77 160.27,-401.58 162.75,-395.03"/>
</g>
<!-- Dedekind domain -->
<g id="node13" class="node">
<title>Dedekind domain</title>
<ellipse fill="none" stroke="black" cx="313.49" cy="-378" rx="74.19" ry="18"/>
<text text-anchor="middle" x="313.49" y="-374.3" font-family="Times,serif" font-size="14.00">Dedekind domain</text>
</g>
<!-- principal ideal domain&#45;&gt;Dedekind domain -->
<g id="edge18" class="edge">
<title>principal ideal domain&#45;&gt;Dedekind domain</title>
<path fill="none" stroke="black" d="M299.94,-431.7C301.95,-423.9 304.36,-414.51 306.59,-405.83"/>
<polygon fill="black" stroke="black" points="309.99,-406.66 309.09,-396.1 303.21,-404.92 309.99,-406.66"/>
</g>
<!-- Bezout domain -->
<g id="node25" class="node">
<title>Bezout domain</title>
<ellipse fill="none" stroke="black" cx="470.49" cy="-378" rx="64.99" ry="18"/>
<text text-anchor="middle" x="470.49" y="-374.3" font-family="Times,serif" font-size="14.00">Bezout domain</text>
</g>
<!-- principal ideal domain&#45;&gt;Bezout domain -->
<g id="edge25" class="edge">
<title>principal ideal domain&#45;&gt;Bezout domain</title>
<path fill="none" stroke="black" d="M333.89,-433.64C361.01,-422.79 397.43,-408.22 425.85,-396.86"/>
<polygon fill="black" stroke="black" points="427.17,-400.1 435.15,-393.14 424.57,-393.6 427.17,-400.1"/>
</g>
<!-- Euclidean field -->
<g id="node5" class="node">
<title>Euclidean field</title>
<ellipse fill="none" stroke="black" cx="315.49" cy="-882" rx="63.89" ry="18"/>
<text text-anchor="middle" x="315.49" y="-878.3" font-family="Times,serif" font-size="14.00">Euclidean field</text>
</g>
<!-- Pythagorean field -->
<g id="node6" class="node">
<title>Pythagorean field</title>
<ellipse fill="none" stroke="black" cx="314.49" cy="-666" rx="72.59" ry="18"/>
<text text-anchor="middle" x="314.49" y="-662.3" font-family="Times,serif" font-size="14.00">Pythagorean field</text>
</g>
<!-- Euclidean field&#45;&gt;Pythagorean field -->
<g id="edge3" class="edge">
<title>Euclidean field&#45;&gt;Pythagorean field</title>
<path fill="none" stroke="black" d="M289.68,-865.37C275.76,-855.93 259.11,-842.86 247.49,-828 225.92,-800.41 222.76,-790.26 215.49,-756 212.17,-740.35 207.27,-733.73 215.49,-720 225.25,-703.7 241.93,-692.13 258.84,-684.05"/>
<polygon fill="black" stroke="black" points="260.48,-687.15 268.22,-679.91 257.66,-680.75 260.48,-687.15"/>
</g>
<!-- ordered field -->
<g id="node20" class="node">
<title>ordered field</title>
<ellipse fill="none" stroke="black" cx="544.49" cy="-810" rx="55.79" ry="18"/>
<text text-anchor="middle" x="544.49" y="-806.3" font-family="Times,serif" font-size="14.00">ordered field</text>
</g>
<!-- Euclidean field&#45;&gt;ordered field -->
<g id="edge23" class="edge">
<title>Euclidean field&#45;&gt;ordered field</title>
<path fill="none" stroke="black" d="M356.96,-868.32C395.98,-856.4 454.42,-838.53 495.67,-825.92"/>
<polygon fill="black" stroke="black" points="496.7,-829.27 505.24,-823 494.65,-822.57 496.7,-829.27"/>
</g>
<!-- field -->
<g id="node8" class="node">
<title>field</title>
<ellipse fill="none" stroke="black" cx="386.49" cy="-594" rx="27" ry="18"/>
<text text-anchor="middle" x="386.49" y="-590.3" font-family="Times,serif" font-size="14.00">field</text>
</g>
<!-- Pythagorean field&#45;&gt;field -->
<g id="edge19" class="edge">
<title>Pythagorean field&#45;&gt;field</title>
<path fill="none" stroke="black" d="M331.55,-648.41C341.32,-638.91 353.7,-626.88 364.23,-616.65"/>
<polygon fill="black" stroke="black" points="366.77,-619.05 371.5,-609.57 361.89,-614.03 366.77,-619.05"/>
</g>
<!-- perfect field -->
<g id="node7" class="node">
<title>perfect field</title>
<ellipse fill="none" stroke="black" cx="458.49" cy="-666" rx="53.09" ry="18"/>
<text text-anchor="middle" x="458.49" y="-662.3" font-family="Times,serif" font-size="14.00">perfect field</text>
</g>
<!-- perfect field&#45;&gt;field -->
<g id="edge4" class="edge">
<title>perfect field&#45;&gt;field</title>
<path fill="none" stroke="black" d="M441.79,-648.76C431.9,-639.14 419.24,-626.84 408.53,-616.43"/>
<polygon fill="black" stroke="black" points="410.76,-613.71 401.15,-609.25 405.88,-618.73 410.76,-613.71"/>
</g>
<!-- field&#45;&gt;Euclidean domain -->
<g id="edge8" class="edge">
<title>field&#45;&gt;Euclidean domain</title>
<path fill="none" stroke="black" d="M364.1,-583.56C338.92,-572.94 297.37,-555.42 265.42,-541.95"/>
<polygon fill="black" stroke="black" points="266.42,-538.57 255.84,-537.91 263.7,-545.02 266.42,-538.57"/>
</g>
<!-- regular local -->
<g id="node12" class="node">
<title>regular local</title>
<ellipse fill="none" stroke="black" cx="112.49" cy="-450" rx="55.49" ry="18"/>
<text text-anchor="middle" x="112.49" y="-446.3" font-family="Times,serif" font-size="14.00">regular local</text>
</g>
<!-- field&#45;&gt;regular local -->
<g id="edge9" class="edge">
<title>field&#45;&gt;regular local</title>
<path fill="none" stroke="black" d="M359.59,-590.8C301.83,-585.54 168.54,-570.35 136.49,-540 119.75,-524.14 114.25,-497.94 112.64,-478.06"/>
<polygon fill="black" stroke="black" points="116.13,-477.85 112.11,-468.05 109.14,-478.22 116.13,-477.85"/>
</g>
<!-- universally Japanese domain -->
<g id="node17" class="node">
<title>universally Japanese domain</title>
<ellipse fill="none" stroke="black" cx="589.49" cy="-522" rx="112.38" ry="18"/>
<text text-anchor="middle" x="589.49" y="-518.3" font-family="Times,serif" font-size="14.00">universally Japanese domain</text>
</g>
<!-- field&#45;&gt;universally Japanese domain -->
<g id="edge14" class="edge">
<title>field&#45;&gt;universally Japanese domain</title>
<path fill="none" stroke="black" d="M410.17,-584.83C440.58,-574.35 494.26,-555.84 534.99,-541.79"/>
<polygon fill="black" stroke="black" points="536.2,-545.08 544.51,-538.51 533.92,-538.46 536.2,-545.08"/>
</g>
<!-- Goldman domain -->
<g id="node21" class="node">
<title>Goldman domain</title>
<ellipse fill="none" stroke="black" cx="709.49" cy="-162" rx="73.39" ry="18"/>
<text text-anchor="middle" x="709.49" y="-158.3" font-family="Times,serif" font-size="14.00">Goldman domain</text>
</g>
<!-- field&#45;&gt;Goldman domain -->
<g id="edge37" class="edge">
<title>field&#45;&gt;Goldman domain</title>
<path fill="none" stroke="black" d="M413.62,-592.37C483.64,-590.16 667.94,-580.55 710.49,-540 739.77,-512.1 729.49,-491.45 729.49,-451 729.49,-451 729.49,-451 729.49,-305 729.49,-264.82 721.54,-218.87 715.67,-190.39"/>
<polygon fill="black" stroke="black" points="719.04,-189.43 713.54,-180.38 712.19,-190.89 719.04,-189.43"/>
</g>
<!-- valuation domain -->
<g id="node30" class="node">
<title>valuation domain</title>
<ellipse fill="none" stroke="black" cx="386.49" cy="-522" rx="72.59" ry="18"/>
<text text-anchor="middle" x="386.49" y="-518.3" font-family="Times,serif" font-size="14.00">valuation domain</text>
</g>
<!-- field&#45;&gt;valuation domain -->
<g id="edge39" class="edge">
<title>field&#45;&gt;valuation domain</title>
<path fill="none" stroke="black" d="M386.49,-575.7C386.49,-567.98 386.49,-558.71 386.49,-550.11"/>
<polygon fill="black" stroke="black" points="389.99,-550.1 386.49,-540.1 382.99,-550.1 389.99,-550.1"/>
</g>
<!-- N&#45;1 -->
<g id="node9" class="node">
<title>N&#45;1</title>
<ellipse fill="none" stroke="black" cx="436.49" cy="-90" rx="27" ry="18"/>
<text text-anchor="middle" x="436.49" y="-86.3" font-family="Times,serif" font-size="14.00">N&#45;1</text>
</g>
<!-- domain -->
<g id="node10" class="node">
<title>domain</title>
<ellipse fill="none" stroke="black" cx="436.49" cy="-18" rx="37.89" ry="18"/>
<text text-anchor="middle" x="436.49" y="-14.3" font-family="Times,serif" font-size="14.00">domain</text>
</g>
<!-- N&#45;1&#45;&gt;domain -->
<g id="edge6" class="edge">
<title>N&#45;1&#45;&gt;domain</title>
<path fill="none" stroke="black" d="M436.49,-71.7C436.49,-63.98 436.49,-54.71 436.49,-46.11"/>
<polygon fill="black" stroke="black" points="439.99,-46.1 436.49,-36.1 432.99,-46.1 439.99,-46.1"/>
</g>
<!-- Schreier domain -->
<g id="node27" class="node">
<title>Schreier domain</title>
<ellipse fill="none" stroke="black" cx="294.49" cy="-234" rx="69.59" ry="18"/>
<text text-anchor="middle" x="294.49" y="-230.3" font-family="Times,serif" font-size="14.00">Schreier domain</text>
</g>
<!-- GCD domain&#45;&gt;Schreier domain -->
<g id="edge28" class="edge">
<title>GCD domain&#45;&gt;Schreier domain</title>
<path fill="none" stroke="black" d="M257.35,-288.05C263.19,-279.71 270.35,-269.49 276.81,-260.25"/>
<polygon fill="black" stroke="black" points="279.87,-261.99 282.74,-251.79 274.14,-257.97 279.87,-261.99"/>
</g>
<!-- regular local&#45;&gt;unique factorization domain -->
<g id="edge11" class="edge">
<title>regular local&#45;&gt;unique factorization domain</title>
<path fill="none" stroke="black" d="M112,-431.7C111.78,-423.98 111.51,-414.71 111.26,-406.11"/>
<polygon fill="black" stroke="black" points="114.76,-406 110.98,-396.1 107.77,-406.2 114.76,-406"/>
</g>
<!-- Dedekind domain&#45;&gt;Krull domain -->
<g id="edge41" class="edge">
<title>Dedekind domain&#45;&gt;Krull domain</title>
<path fill="none" stroke="black" d="M272.41,-362.83C239.16,-351.37 192.3,-335.21 157.55,-323.23"/>
<polygon fill="black" stroke="black" points="158.68,-319.92 148.09,-319.96 156.4,-326.53 158.68,-319.92"/>
</g>
<!-- almost Dedekind domain -->
<g id="node14" class="node">
<title>almost Dedekind domain</title>
<ellipse fill="none" stroke="black" cx="422.49" cy="-306" rx="100.98" ry="18"/>
<text text-anchor="middle" x="422.49" y="-302.3" font-family="Times,serif" font-size="14.00">almost Dedekind domain</text>
</g>
<!-- Dedekind domain&#45;&gt;almost Dedekind domain -->
<g id="edge10" class="edge">
<title>Dedekind domain&#45;&gt;almost Dedekind domain</title>
<path fill="none" stroke="black" d="M338.5,-360.94C353.24,-351.47 372.1,-339.36 388.22,-329.01"/>
<polygon fill="black" stroke="black" points="390.32,-331.82 396.84,-323.47 386.54,-325.93 390.32,-331.82"/>
</g>
<!-- Prufer domain -->
<g id="node22" class="node">
<title>Prufer domain</title>
<ellipse fill="none" stroke="black" cx="443.49" cy="-234" rx="61.99" ry="18"/>
<text text-anchor="middle" x="443.49" y="-230.3" font-family="Times,serif" font-size="14.00">Prufer domain</text>
</g>
<!-- almost Dedekind domain&#45;&gt;Prufer domain -->
<g id="edge21" class="edge">
<title>almost Dedekind domain&#45;&gt;Prufer domain</title>
<path fill="none" stroke="black" d="M427.68,-287.7C430.02,-279.9 432.84,-270.51 435.44,-261.83"/>
<polygon fill="black" stroke="black" points="438.84,-262.69 438.36,-252.1 432.13,-260.68 438.84,-262.69"/>
</g>
<!-- algebraically closed field -->
<g id="node15" class="node">
<title>algebraically closed field</title>
<ellipse fill="none" stroke="black" cx="355.49" cy="-810" rx="98.58" ry="18"/>
<text text-anchor="middle" x="355.49" y="-806.3" font-family="Times,serif" font-size="14.00">algebraically closed field</text>
</g>
<!-- algebraically closed field&#45;&gt;perfect field -->
<g id="edge12" class="edge">
<title>algebraically closed field&#45;&gt;perfect field</title>
<path fill="none" stroke="black" d="M388.21,-792.79C403.32,-783.82 420.34,-771.36 431.49,-756 444.72,-737.79 451.55,-713.02 455.02,-694.23"/>
<polygon fill="black" stroke="black" points="458.5,-694.66 456.67,-684.22 451.59,-693.53 458.5,-694.66"/>
</g>
<!-- quadratically closed field -->
<g id="node28" class="node">
<title>quadratically closed field</title>
<ellipse fill="none" stroke="black" cx="323.49" cy="-738" rx="99.38" ry="18"/>
<text text-anchor="middle" x="323.49" y="-734.3" font-family="Times,serif" font-size="14.00">quadratically closed field</text>
</g>
<!-- algebraically closed field&#45;&gt;quadratically closed field -->
<g id="edge31" class="edge">
<title>algebraically closed field&#45;&gt;quadratically closed field</title>
<path fill="none" stroke="black" d="M347.74,-792.05C344.1,-784.09 339.68,-774.41 335.61,-765.51"/>
<polygon fill="black" stroke="black" points="338.73,-763.91 331.39,-756.28 332.36,-766.83 338.73,-763.91"/>
</g>
<!-- normal domain&#45;&gt;N&#45;1 -->
<g id="edge13" class="edge">
<title>normal domain&#45;&gt;N&#45;1</title>
<path fill="none" stroke="black" d="M363.52,-144.76C377.64,-134.37 396.01,-120.83 410.78,-109.94"/>
<polygon fill="black" stroke="black" points="413.04,-112.63 419.01,-103.88 408.88,-106.99 413.04,-112.63"/>
</g>
<!-- Japanese (N&#45;2) -->
<g id="node18" class="node">
<title>Japanese (N&#45;2)</title>
<ellipse fill="none" stroke="black" cx="589.49" cy="-450" rx="63.89" ry="18"/>
<text text-anchor="middle" x="589.49" y="-446.3" font-family="Times,serif" font-size="14.00">Japanese (N&#45;2)</text>
</g>
<!-- universally Japanese domain&#45;&gt;Japanese (N&#45;2) -->
<g id="edge15" class="edge">
<title>universally Japanese domain&#45;&gt;Japanese (N&#45;2)</title>
<path fill="none" stroke="black" d="M589.49,-503.7C589.49,-495.98 589.49,-486.71 589.49,-478.11"/>
<polygon fill="black" stroke="black" points="592.99,-478.1 589.49,-468.1 585.99,-478.1 592.99,-478.1"/>
</g>
<!-- Japanese (N&#45;2)&#45;&gt;N&#45;1 -->
<g id="edge16" class="edge">
<title>Japanese (N&#45;2)&#45;&gt;N&#45;1</title>
<path fill="none" stroke="black" d="M589.49,-431.95C589.49,-405.29 589.49,-352.11 589.49,-307 589.49,-307 589.49,-307 589.49,-233 589.49,-167.67 513.62,-123.93 468.73,-103.78"/>
<polygon fill="black" stroke="black" points="469.96,-100.49 459.4,-99.72 467.17,-106.91 469.96,-100.49"/>
</g>
<!-- Archimedean field -->
<g id="node19" class="node">
<title>Archimedean field</title>
<ellipse fill="none" stroke="black" cx="544.49" cy="-882" rx="76.89" ry="18"/>
<text text-anchor="middle" x="544.49" y="-878.3" font-family="Times,serif" font-size="14.00">Archimedean field</text>
</g>
<!-- Archimedean field&#45;&gt;ordered field -->
<g id="edge17" class="edge">
<title>Archimedean field&#45;&gt;ordered field</title>
<path fill="none" stroke="black" d="M544.49,-863.7C544.49,-855.98 544.49,-846.71 544.49,-838.11"/>
<polygon fill="black" stroke="black" points="547.99,-838.1 544.49,-828.1 540.99,-838.1 547.99,-838.1"/>
</g>
<!-- characteristic 0 field -->
<g id="node26" class="node">
<title>characteristic 0 field</title>
<ellipse fill="none" stroke="black" cx="561.49" cy="-738" rx="82.59" ry="18"/>
<text text-anchor="middle" x="561.49" y="-734.3" font-family="Times,serif" font-size="14.00">characteristic 0 field</text>
</g>
<!-- ordered field&#45;&gt;characteristic 0 field -->
<g id="edge30" class="edge">
<title>ordered field&#45;&gt;characteristic 0 field</title>
<path fill="none" stroke="black" d="M548.69,-791.7C550.59,-783.9 552.87,-774.51 554.97,-765.83"/>
<polygon fill="black" stroke="black" points="558.38,-766.65 557.34,-756.1 551.58,-765 558.38,-766.65"/>
</g>
<!-- Goldman domain&#45;&gt;domain -->
<g id="edge20" class="edge">
<title>Goldman domain&#45;&gt;domain</title>
<path fill="none" stroke="black" d="M679.75,-145.53C628.52,-118.88 523.93,-64.48 470.12,-36.49"/>
<polygon fill="black" stroke="black" points="471.49,-33.26 461,-31.75 468.26,-39.47 471.49,-33.26"/>
</g>
<!-- Prufer domain&#45;&gt;normal domain -->
<g id="edge33" class="edge">
<title>Prufer domain&#45;&gt;normal domain</title>
<path fill="none" stroke="black" d="M420.34,-217.12C406.49,-207.61 388.68,-195.38 373.49,-184.96"/>
<polygon fill="black" stroke="black" points="375.12,-181.84 364.9,-179.06 371.16,-187.61 375.12,-181.84"/>
</g>
<!-- atomic domain -->
<g id="node23" class="node">
<title>atomic domain</title>
<ellipse fill="none" stroke="black" cx="309.49" cy="-90" rx="64.19" ry="18"/>
<text text-anchor="middle" x="309.49" y="-86.3" font-family="Times,serif" font-size="14.00">atomic domain</text>
</g>
<!-- atomic domain&#45;&gt;domain -->
<g id="edge22" class="edge">
<title>atomic domain&#45;&gt;domain</title>
<path fill="none" stroke="black" d="M337.36,-73.64C356.86,-62.89 382.99,-48.49 403.53,-37.17"/>
<polygon fill="black" stroke="black" points="405.46,-40.1 412.53,-32.21 402.08,-33.97 405.46,-40.1"/>
</g>
<!-- ACCP domain -->
<g id="node29" class="node">
<title>ACCP domain</title>
<ellipse fill="none" stroke="black" cx="176.49" cy="-162" rx="62.29" ry="18"/>
<text text-anchor="middle" x="176.49" y="-158.3" font-family="Times,serif" font-size="14.00">ACCP domain</text>
</g>
<!-- Mori domain&#45;&gt;ACCP domain -->
<g id="edge35" class="edge">
<title>Mori domain&#45;&gt;ACCP domain</title>
<path fill="none" stroke="black" d="M126.13,-216.41C134.43,-207.61 144.78,-196.63 153.94,-186.92"/>
<polygon fill="black" stroke="black" points="156.65,-189.15 160.96,-179.47 151.55,-184.34 156.65,-189.15"/>
</g>
<!-- Bezout domain&#45;&gt;GCD domain -->
<g id="edge34" class="edge">
<title>Bezout domain&#45;&gt;GCD domain</title>
<path fill="none" stroke="black" d="M428.96,-364.08C391.07,-352.29 335.03,-334.86 294.86,-322.36"/>
<polygon fill="black" stroke="black" points="295.86,-319 285.27,-319.38 293.78,-325.69 295.86,-319"/>
</g>
<!-- Bezout domain&#45;&gt;Prufer domain -->
<g id="edge29" class="edge">
<title>Bezout domain&#45;&gt;Prufer domain</title>
<path fill="none" stroke="black" d="M497.73,-361.54C510.84,-352.46 525.26,-339.69 532.49,-324 539.19,-309.47 540.4,-301.91 532.49,-288 523.58,-272.32 507.98,-260.79 492.31,-252.56"/>
<polygon fill="black" stroke="black" points="493.65,-249.32 483.13,-248.1 490.59,-255.62 493.65,-249.32"/>
</g>
<!-- characteristic 0 field&#45;&gt;perfect field -->
<g id="edge26" class="edge">
<title>characteristic 0 field&#45;&gt;perfect field</title>
<path fill="none" stroke="black" d="M537.6,-720.76C523.39,-711.11 505.2,-698.75 489.85,-688.31"/>
<polygon fill="black" stroke="black" points="491.43,-685.15 481.19,-682.43 487.49,-690.94 491.43,-685.15"/>
</g>
<!-- Schreier domain&#45;&gt;normal domain -->
<g id="edge27" class="edge">
<title>Schreier domain&#45;&gt;normal domain</title>
<path fill="none" stroke="black" d="M305.87,-216.05C311.47,-207.71 318.33,-197.49 324.54,-188.25"/>
<polygon fill="black" stroke="black" points="327.55,-190.04 330.22,-179.79 321.74,-186.14 327.55,-190.04"/>
</g>
<!-- quadratically closed field&#45;&gt;Pythagorean field -->
<g id="edge38" class="edge">
<title>quadratically closed field&#45;&gt;Pythagorean field</title>
<path fill="none" stroke="black" d="M321.27,-719.7C320.27,-711.98 319.08,-702.71 317.98,-694.11"/>
<polygon fill="black" stroke="black" points="321.44,-693.58 316.69,-684.1 314.49,-694.47 321.44,-693.58"/>
</g>
<!-- ACCP domain&#45;&gt;atomic domain -->
<g id="edge36" class="edge">
<title>ACCP domain&#45;&gt;atomic domain</title>
<path fill="none" stroke="black" d="M205.02,-145.98C224.44,-135.76 250.34,-122.13 271.5,-110.99"/>
<polygon fill="black" stroke="black" points="273.33,-113.99 280.55,-106.23 270.07,-107.79 273.33,-113.99"/>
</g>
<!-- valuation domain&#45;&gt;Bezout domain -->
<g id="edge40" class="edge">
<title>valuation domain&#45;&gt;Bezout domain</title>
<path fill="none" stroke="black" d="M396.46,-504.15C411.04,-479.49 438.33,-433.37 455.39,-404.53"/>
<polygon fill="black" stroke="black" points="458.46,-406.21 460.54,-395.82 452.43,-402.65 458.46,-406.21"/>
</g>
</g>
</svg>
