<?xml version="1.0" encoding="UTF-8" standalone="no"?>
<!DOCTYPE svg PUBLIC "-//W3C//DTD SVG 1.1//EN"
 "http://www.w3.org/Graphics/SVG/1.1/DTD/svg11.dtd">
<!-- Generated by graphviz version 8.1.0 (20230707.0739)
 -->
<!-- Pages: 1 -->
<svg width="820pt" height="949pt"
 viewBox="0.00 0.00 820.27 949.00" xmlns="http://www.w3.org/2000/svg" xmlns:xlink="http://www.w3.org/1999/xlink">
<g id="graph0" class="graph" transform="scale(1 1) rotate(0) translate(4 945)">
<g id="a_graph0"><a xlink:href="https://ringtheory.herokuapp.com/" xlink:title="Field and domain properties&lt;br/&gt;(© Database of Ring Theory; Last updated 2024&#45;01&#45;14)">
<polygon fill="white" stroke="none" points="-4,4 -4,-945 816.27,-945 816.27,4 -4,4"/>
<text text-anchor="start" x="329.26" y="-923.7" font-family="Times,serif" font-size="14.00">Field and domain properties</text>
<text text-anchor="start" x="254.26" y="-907.2" font-family="Times,serif" font-size="14.00">(© Database of Ring Theory; Last updated 2024&#45;01&#45;14)</text>
</a>
</g>
<!-- unique factorization domain -->
<g id="node1" class="node">
<title>unique factorization domain</title>
<ellipse fill="none" stroke="black" cx="115.84" cy="-378" rx="115.84" ry="18"/>
<text text-anchor="middle" x="115.84" y="-372.95" font-family="Times,serif" font-size="14.00">unique factorization domain</text>
</g>
<!-- Krull domain -->
<g id="node2" class="node">
<title>Krull domain</title>
<ellipse fill="none" stroke="black" cx="115.84" cy="-306" rx="61.08" ry="18"/>
<text text-anchor="middle" x="115.84" y="-300.95" font-family="Times,serif" font-size="14.00">Krull domain</text>
</g>
<!-- unique factorization domain&#45;&gt;Krull domain -->
<g id="edge1" class="edge">
<title>unique factorization domain&#45;&gt;Krull domain</title>
<path fill="none" stroke="black" d="M115.84,-359.7C115.84,-352.24 115.84,-343.32 115.84,-334.97"/>
<polygon fill="black" stroke="black" points="119.34,-335.1 115.84,-325.1 112.34,-335.1 119.34,-335.1"/>
</g>
<!-- GCD domain -->
<g id="node11" class="node">
<title>GCD domain</title>
<ellipse fill="none" stroke="black" cx="255.84" cy="-306" rx="61.08" ry="18"/>
<text text-anchor="middle" x="255.84" y="-300.95" font-family="Times,serif" font-size="14.00">GCD domain</text>
</g>
<!-- unique factorization domain&#45;&gt;GCD domain -->
<g id="edge7" class="edge">
<title>unique factorization domain&#45;&gt;GCD domain</title>
<path fill="none" stroke="black" d="M149.02,-360.41C169.12,-350.36 194.89,-337.48 216.08,-326.88"/>
<polygon fill="black" stroke="black" points="217.38,-329.64 224.76,-322.04 214.25,-323.38 217.38,-329.64"/>
</g>
<!-- normal domain -->
<g id="node16" class="node">
<title>normal domain</title>
<ellipse fill="none" stroke="black" cx="354.84" cy="-162" rx="68.24" ry="18"/>
<text text-anchor="middle" x="354.84" y="-156.95" font-family="Times,serif" font-size="14.00">normal domain</text>
</g>
<!-- Krull domain&#45;&gt;normal domain -->
<g id="edge32" class="edge">
<title>Krull domain&#45;&gt;normal domain</title>
<path fill="none" stroke="black" d="M138.4,-288.9C152.36,-278.7 170.49,-265.01 185.84,-252 203.58,-236.96 204.27,-228.58 223.84,-216 247.49,-200.79 276.23,-188.58 300.75,-179.72"/>
<polygon fill="black" stroke="black" points="301.7,-182.75 309.98,-176.14 299.38,-176.14 301.7,-182.75"/>
</g>
<!-- Mori domain -->
<g id="node24" class="node">
<title>Mori domain</title>
<ellipse fill="none" stroke="black" cx="115.84" cy="-234" rx="60.56" ry="18"/>
<text text-anchor="middle" x="115.84" y="-228.95" font-family="Times,serif" font-size="14.00">Mori domain</text>
</g>
<!-- Krull domain&#45;&gt;Mori domain -->
<g id="edge24" class="edge">
<title>Krull domain&#45;&gt;Mori domain</title>
<path fill="none" stroke="black" d="M115.84,-287.7C115.84,-280.24 115.84,-271.32 115.84,-262.97"/>
<polygon fill="black" stroke="black" points="119.34,-263.1 115.84,-253.1 112.34,-263.1 119.34,-263.1"/>
</g>
<!-- Euclidean domain -->
<g id="node3" class="node">
<title>Euclidean domain</title>
<ellipse fill="none" stroke="black" cx="226.84" cy="-522" rx="78.48" ry="18"/>
<text text-anchor="middle" x="226.84" y="-516.95" font-family="Times,serif" font-size="14.00">Euclidean domain</text>
</g>
<!-- principal ideal domain -->
<g id="node4" class="node">
<title>principal ideal domain</title>
<ellipse fill="none" stroke="black" cx="307.84" cy="-450" rx="94.86" ry="18"/>
<text text-anchor="middle" x="307.84" y="-444.95" font-family="Times,serif" font-size="14.00">principal ideal domain</text>
</g>
<!-- Euclidean domain&#45;&gt;principal ideal domain -->
<g id="edge2" class="edge">
<title>Euclidean domain&#45;&gt;principal ideal domain</title>
<path fill="none" stroke="black" d="M246.04,-504.41C256.18,-495.65 268.81,-484.73 280,-475.06"/>
<polygon fill="black" stroke="black" points="281.94,-477.14 287.22,-467.96 277.36,-471.85 281.94,-477.14"/>
</g>
<!-- principal ideal domain&#45;&gt;unique factorization domain -->
<g id="edge5" class="edge">
<title>principal ideal domain&#45;&gt;unique factorization domain</title>
<path fill="none" stroke="black" d="M265.23,-433.46C237.14,-423.22 200.11,-409.72 169.94,-398.72"/>
<polygon fill="black" stroke="black" points="171.59,-395.24 161,-395.1 169.19,-401.81 171.59,-395.24"/>
</g>
<!-- Dedekind domain -->
<g id="node13" class="node">
<title>Dedekind domain</title>
<ellipse fill="none" stroke="black" cx="326.84" cy="-378" rx="77.45" ry="18"/>
<text text-anchor="middle" x="326.84" y="-372.95" font-family="Times,serif" font-size="14.00">Dedekind domain</text>
</g>
<!-- principal ideal domain&#45;&gt;Dedekind domain -->
<g id="edge18" class="edge">
<title>principal ideal domain&#45;&gt;Dedekind domain</title>
<path fill="none" stroke="black" d="M312.54,-431.7C314.58,-424.15 317.04,-415.12 319.33,-406.68"/>
<polygon fill="black" stroke="black" points="322.95,-407.67 322.2,-397.1 316.2,-405.84 322.95,-407.67"/>
</g>
<!-- Bezout domain -->
<g id="node25" class="node">
<title>Bezout domain</title>
<ellipse fill="none" stroke="black" cx="489.84" cy="-378" rx="67.73" ry="18"/>
<text text-anchor="middle" x="489.84" y="-372.95" font-family="Times,serif" font-size="14.00">Bezout domain</text>
</g>
<!-- principal ideal domain&#45;&gt;Bezout domain -->
<g id="edge25" class="edge">
<title>principal ideal domain&#45;&gt;Bezout domain</title>
<path fill="none" stroke="black" d="M348.68,-433.29C376.53,-422.58 413.48,-408.37 442.6,-397.17"/>
<polygon fill="black" stroke="black" points="443.46,-400.2 451.54,-393.35 440.95,-393.67 443.46,-400.2"/>
</g>
<!-- Euclidean field -->
<g id="node5" class="node">
<title>Euclidean field</title>
<ellipse fill="none" stroke="black" cx="323.84" cy="-882" rx="67.22" ry="18"/>
<text text-anchor="middle" x="323.84" y="-876.95" font-family="Times,serif" font-size="14.00">Euclidean field</text>
</g>
<!-- Pythagorean field -->
<g id="node6" class="node">
<title>Pythagorean field</title>
<ellipse fill="none" stroke="black" cx="323.84" cy="-666" rx="76.43" ry="18"/>
<text text-anchor="middle" x="323.84" y="-660.95" font-family="Times,serif" font-size="14.00">Pythagorean field</text>
</g>
<!-- Euclidean field&#45;&gt;Pythagorean field -->
<g id="edge3" class="edge">
<title>Euclidean field&#45;&gt;Pythagorean field</title>
<path fill="none" stroke="black" d="M286.92,-866.49C269.32,-857.81 249.42,-845.1 236.84,-828 208,-788.8 193.33,-761.44 218.84,-720 229,-703.49 246.06,-691.94 263.51,-683.94"/>
<polygon fill="black" stroke="black" points="264.35,-686.96 272.2,-679.85 261.63,-680.51 264.35,-686.96"/>
</g>
<!-- ordered field -->
<g id="node20" class="node">
<title>ordered field</title>
<ellipse fill="none" stroke="black" cx="563.84" cy="-810" rx="58.52" ry="18"/>
<text text-anchor="middle" x="563.84" y="-804.95" font-family="Times,serif" font-size="14.00">ordered field</text>
</g>
<!-- Euclidean field&#45;&gt;ordered field -->
<g id="edge23" class="edge">
<title>Euclidean field&#45;&gt;ordered field</title>
<path fill="none" stroke="black" d="M368.14,-868.08C408.84,-856.21 469.19,-838.61 512.09,-826.09"/>
<polygon fill="black" stroke="black" points="512.98,-829.19 521.6,-823.03 511.02,-822.47 512.98,-829.19"/>
</g>
<!-- field -->
<g id="node8" class="node">
<title>field</title>
<ellipse fill="none" stroke="black" cx="398.84" cy="-594" rx="27.81" ry="18"/>
<text text-anchor="middle" x="398.84" y="-588.95" font-family="Times,serif" font-size="14.00">field</text>
</g>
<!-- Pythagorean field&#45;&gt;field -->
<g id="edge19" class="edge">
<title>Pythagorean field&#45;&gt;field</title>
<path fill="none" stroke="black" d="M341.99,-648.05C352.08,-638.64 364.74,-626.82 375.55,-616.74"/>
<polygon fill="black" stroke="black" points="377.46,-619.81 382.38,-610.42 372.69,-614.69 377.46,-619.81"/>
</g>
<!-- perfect field -->
<g id="node7" class="node">
<title>perfect field</title>
<ellipse fill="none" stroke="black" cx="473.84" cy="-666" rx="55.96" ry="18"/>
<text text-anchor="middle" x="473.84" y="-660.95" font-family="Times,serif" font-size="14.00">perfect field</text>
</g>
<!-- perfect field&#45;&gt;field -->
<g id="edge4" class="edge">
<title>perfect field&#45;&gt;field</title>
<path fill="none" stroke="black" d="M456.44,-648.76C446.24,-639.24 433.21,-627.08 422.12,-616.73"/>
<polygon fill="black" stroke="black" points="424.81,-614.51 415.11,-610.25 420.03,-619.63 424.81,-614.51"/>
</g>
<!-- field&#45;&gt;Euclidean domain -->
<g id="edge8" class="edge">
<title>field&#45;&gt;Euclidean domain</title>
<path fill="none" stroke="black" d="M375.64,-583.56C349.72,-573.01 307.04,-555.64 274.03,-542.2"/>
<polygon fill="black" stroke="black" points="275.7,-538.7 265.12,-538.17 273.06,-545.18 275.7,-538.7"/>
</g>
<!-- regular local -->
<g id="node12" class="node">
<title>regular local</title>
<ellipse fill="none" stroke="black" cx="117.84" cy="-450" rx="57.49" ry="18"/>
<text text-anchor="middle" x="117.84" y="-444.95" font-family="Times,serif" font-size="14.00">regular local</text>
</g>
<!-- field&#45;&gt;regular local -->
<g id="edge9" class="edge">
<title>field&#45;&gt;regular local</title>
<path fill="none" stroke="black" d="M370.94,-590.99C311.01,-586.11 172.78,-571.63 139.84,-540 123.62,-524.43 118.6,-498.94 117.36,-479.22"/>
<polygon fill="black" stroke="black" points="120.83,-479.28 117.01,-469.39 113.84,-479.5 120.83,-479.28"/>
</g>
<!-- universally Japanese domain -->
<g id="node17" class="node">
<title>universally Japanese domain</title>
<ellipse fill="none" stroke="black" cx="610.84" cy="-522" rx="117.89" ry="18"/>
<text text-anchor="middle" x="610.84" y="-516.95" font-family="Times,serif" font-size="14.00">universally Japanese domain</text>
</g>
<!-- field&#45;&gt;universally Japanese domain -->
<g id="edge14" class="edge">
<title>field&#45;&gt;universally Japanese domain</title>
<path fill="none" stroke="black" d="M423.16,-584.97C454.51,-574.62 510.04,-556.28 552.59,-542.23"/>
<polygon fill="black" stroke="black" points="553.43,-545.31 561.83,-538.85 551.24,-538.66 553.43,-545.31"/>
</g>
<!-- Goldman domain -->
<g id="node21" class="node">
<title>Goldman domain</title>
<ellipse fill="none" stroke="black" cx="735.84" cy="-162" rx="76.43" ry="18"/>
<text text-anchor="middle" x="735.84" y="-156.95" font-family="Times,serif" font-size="14.00">Goldman domain</text>
</g>
<!-- field&#45;&gt;Goldman domain -->
<g id="edge37" class="edge">
<title>field&#45;&gt;Goldman domain</title>
<path fill="none" stroke="black" d="M426.95,-592.56C499.99,-590.83 693.16,-582.27 737.84,-540 767.22,-512.2 756.84,-491.45 756.84,-451 756.84,-451 756.84,-451 756.84,-305 756.84,-264.96 748.57,-219.24 742.41,-190.75"/>
<polygon fill="black" stroke="black" points="745.68,-190.36 740.09,-181.37 738.85,-191.89 745.68,-190.36"/>
</g>
<!-- valuation domain -->
<g id="node30" class="node">
<title>valuation domain</title>
<ellipse fill="none" stroke="black" cx="398.84" cy="-522" rx="75.92" ry="18"/>
<text text-anchor="middle" x="398.84" y="-516.95" font-family="Times,serif" font-size="14.00">valuation domain</text>
</g>
<!-- field&#45;&gt;valuation domain -->
<g id="edge39" class="edge">
<title>field&#45;&gt;valuation domain</title>
<path fill="none" stroke="black" d="M398.84,-575.7C398.84,-568.24 398.84,-559.32 398.84,-550.97"/>
<polygon fill="black" stroke="black" points="402.34,-551.1 398.84,-541.1 395.34,-551.1 402.34,-551.1"/>
</g>
<!-- N&#45;1 -->
<g id="node9" class="node">
<title>N&#45;1</title>
<ellipse fill="none" stroke="black" cx="453.84" cy="-90" rx="27" ry="18"/>
<text text-anchor="middle" x="453.84" y="-84.95" font-family="Times,serif" font-size="14.00">N&#45;1</text>
</g>
<!-- domain -->
<g id="node10" class="node">
<title>domain</title>
<ellipse fill="none" stroke="black" cx="453.84" cy="-18" rx="39.07" ry="18"/>
<text text-anchor="middle" x="453.84" y="-12.95" font-family="Times,serif" font-size="14.00">domain</text>
</g>
<!-- N&#45;1&#45;&gt;domain -->
<g id="edge6" class="edge">
<title>N&#45;1&#45;&gt;domain</title>
<path fill="none" stroke="black" d="M453.84,-71.7C453.84,-64.24 453.84,-55.32 453.84,-46.97"/>
<polygon fill="black" stroke="black" points="457.34,-47.1 453.84,-37.1 450.34,-47.1 457.34,-47.1"/>
</g>
<!-- Schreier domain -->
<g id="node27" class="node">
<title>Schreier domain</title>
<ellipse fill="none" stroke="black" cx="304.84" cy="-234" rx="72.34" ry="18"/>
<text text-anchor="middle" x="304.84" y="-228.95" font-family="Times,serif" font-size="14.00">Schreier domain</text>
</g>
<!-- GCD domain&#45;&gt;Schreier domain -->
<g id="edge28" class="edge">
<title>GCD domain&#45;&gt;Schreier domain</title>
<path fill="none" stroke="black" d="M267.7,-288.05C273.48,-279.8 280.55,-269.7 286.96,-260.54"/>
<polygon fill="black" stroke="black" points="290.22,-262.99 293.09,-252.79 284.48,-258.97 290.22,-262.99"/>
</g>
<!-- regular local&#45;&gt;unique factorization domain -->
<g id="edge11" class="edge">
<title>regular local&#45;&gt;unique factorization domain</title>
<path fill="none" stroke="black" d="M117.34,-431.7C117.13,-424.24 116.88,-415.32 116.64,-406.97"/>
<polygon fill="black" stroke="black" points="120.11,-407 116.33,-397.1 113.12,-407.2 120.11,-407"/>
</g>
<!-- Dedekind domain&#45;&gt;Krull domain -->
<g id="edge41" class="edge">
<title>Dedekind domain&#45;&gt;Krull domain</title>
<path fill="none" stroke="black" d="M283.63,-362.67C249.39,-351.31 201.52,-335.42 165.67,-323.53"/>
<polygon fill="black" stroke="black" points="167.02,-319.96 156.43,-320.13 164.82,-326.6 167.02,-319.96"/>
</g>
<!-- almost Dedekind domain -->
<g id="node14" class="node">
<title>almost Dedekind domain</title>
<ellipse fill="none" stroke="black" cx="439.84" cy="-306" rx="105.09" ry="18"/>
<text text-anchor="middle" x="439.84" y="-300.95" font-family="Times,serif" font-size="14.00">almost Dedekind domain</text>
</g>
<!-- Dedekind domain&#45;&gt;almost Dedekind domain -->
<g id="edge10" class="edge">
<title>Dedekind domain&#45;&gt;almost Dedekind domain</title>
<path fill="none" stroke="black" d="M353.05,-360.76C368.09,-351.45 387.2,-339.61 403.66,-329.41"/>
<polygon fill="black" stroke="black" points="405.33,-331.87 411.99,-323.63 401.64,-325.92 405.33,-331.87"/>
</g>
<!-- Prufer domain -->
<g id="node22" class="node">
<title>Prufer domain</title>
<ellipse fill="none" stroke="black" cx="459.84" cy="-234" rx="64.66" ry="18"/>
<text text-anchor="middle" x="459.84" y="-228.95" font-family="Times,serif" font-size="14.00">Prufer domain</text>
</g>
<!-- almost Dedekind domain&#45;&gt;Prufer domain -->
<g id="edge21" class="edge">
<title>almost Dedekind domain&#45;&gt;Prufer domain</title>
<path fill="none" stroke="black" d="M444.78,-287.7C446.94,-280.15 449.52,-271.12 451.93,-262.68"/>
<polygon fill="black" stroke="black" points="455.57,-263.68 454.95,-253.1 448.84,-261.76 455.57,-263.68"/>
</g>
<!-- algebraically closed field -->
<g id="node15" class="node">
<title>algebraically closed field</title>
<ellipse fill="none" stroke="black" cx="349.84" cy="-810" rx="104.07" ry="18"/>
<text text-anchor="middle" x="349.84" y="-804.95" font-family="Times,serif" font-size="14.00">algebraically closed field</text>
</g>
<!-- algebraically closed field&#45;&gt;perfect field -->
<g id="edge12" class="edge">
<title>algebraically closed field&#45;&gt;perfect field</title>
<path fill="none" stroke="black" d="M394.52,-793.39C413.02,-784.91 433.28,-772.68 446.84,-756 460.99,-738.59 467.74,-713.86 470.94,-694.89"/>
<polygon fill="black" stroke="black" points="474.52,-695.6 472.49,-685.21 467.59,-694.6 474.52,-695.6"/>
</g>
<!-- quadratically closed field -->
<g id="node28" class="node">
<title>quadratically closed field</title>
<ellipse fill="none" stroke="black" cx="332.84" cy="-738" rx="104.58" ry="18"/>
<text text-anchor="middle" x="332.84" y="-732.95" font-family="Times,serif" font-size="14.00">quadratically closed field</text>
</g>
<!-- algebraically closed field&#45;&gt;quadratically closed field -->
<g id="edge31" class="edge">
<title>algebraically closed field&#45;&gt;quadratically closed field</title>
<path fill="none" stroke="black" d="M345.64,-791.7C343.8,-784.15 341.61,-775.12 339.56,-766.68"/>
<polygon fill="black" stroke="black" points="342.75,-766 336.99,-757.1 335.95,-767.65 342.75,-766"/>
</g>
<!-- normal domain&#45;&gt;N&#45;1 -->
<g id="edge13" class="edge">
<title>normal domain&#45;&gt;N&#45;1</title>
<path fill="none" stroke="black" d="M378.05,-144.59C392.63,-134.28 411.49,-120.94 426.75,-110.15"/>
<polygon fill="black" stroke="black" points="428.57,-112.45 434.72,-103.81 424.53,-106.73 428.57,-112.45"/>
</g>
<!-- N&#45;2 -->
<g id="node18" class="node">
<title>N&#45;2</title>
<ellipse fill="none" stroke="black" cx="610.84" cy="-450" rx="27" ry="18"/>
<text text-anchor="middle" x="610.84" y="-444.95" font-family="Times,serif" font-size="14.00">N&#45;2</text>
</g>
<!-- universally Japanese domain&#45;&gt;N&#45;2 -->
<g id="edge15" class="edge">
<title>universally Japanese domain&#45;&gt;N&#45;2</title>
<path fill="none" stroke="black" d="M610.84,-503.7C610.84,-496.24 610.84,-487.32 610.84,-478.97"/>
<polygon fill="black" stroke="black" points="614.34,-479.1 610.84,-469.1 607.34,-479.1 614.34,-479.1"/>
</g>
<!-- N&#45;2&#45;&gt;N&#45;1 -->
<g id="edge16" class="edge">
<title>N&#45;2&#45;&gt;N&#45;1</title>
<path fill="none" stroke="black" d="M610.84,-431.51C610.84,-404.71 610.84,-351.87 610.84,-307 610.84,-307 610.84,-307 610.84,-233 610.84,-166.89 533.31,-123.57 487.22,-103.66"/>
<polygon fill="black" stroke="black" points="488.92,-100.16 478.34,-99.54 486.23,-106.62 488.92,-100.16"/>
</g>
<!-- Archimedean field -->
<g id="node19" class="node">
<title>Archimedean field</title>
<ellipse fill="none" stroke="black" cx="563.84" cy="-882" rx="80.52" ry="18"/>
<text text-anchor="middle" x="563.84" y="-876.95" font-family="Times,serif" font-size="14.00">Archimedean field</text>
</g>
<!-- Archimedean field&#45;&gt;ordered field -->
<g id="edge17" class="edge">
<title>Archimedean field&#45;&gt;ordered field</title>
<path fill="none" stroke="black" d="M563.84,-863.7C563.84,-856.24 563.84,-847.32 563.84,-838.97"/>
<polygon fill="black" stroke="black" points="567.34,-839.1 563.84,-829.1 560.34,-839.1 567.34,-839.1"/>
</g>
<!-- characteristic 0 field -->
<g id="node26" class="node">
<title>characteristic 0 field</title>
<ellipse fill="none" stroke="black" cx="580.84" cy="-738" rx="86.67" ry="18"/>
<text text-anchor="middle" x="580.84" y="-732.95" font-family="Times,serif" font-size="14.00">characteristic 0 field</text>
</g>
<!-- ordered field&#45;&gt;characteristic 0 field -->
<g id="edge30" class="edge">
<title>ordered field&#45;&gt;characteristic 0 field</title>
<path fill="none" stroke="black" d="M568.04,-791.7C569.87,-784.15 572.07,-775.12 574.12,-766.68"/>
<polygon fill="black" stroke="black" points="577.73,-767.65 576.69,-757.1 570.92,-766 577.73,-767.65"/>
</g>
<!-- Goldman domain&#45;&gt;domain -->
<g id="edge20" class="edge">
<title>Goldman domain&#45;&gt;domain</title>
<path fill="none" stroke="black" d="M704.58,-145.26C651.66,-118.61 544.77,-64.79 489.19,-36.8"/>
<polygon fill="black" stroke="black" points="490.95,-33.26 480.44,-31.89 487.8,-39.51 490.95,-33.26"/>
</g>
<!-- Prufer domain&#45;&gt;normal domain -->
<g id="edge33" class="edge">
<title>Prufer domain&#45;&gt;normal domain</title>
<path fill="none" stroke="black" d="M435.75,-216.94C421.58,-207.49 403.45,-195.41 387.95,-185.08"/>
<polygon fill="black" stroke="black" points="390.44,-181.86 380.18,-179.23 386.56,-187.69 390.44,-181.86"/>
</g>
<!-- atomic domain -->
<g id="node23" class="node">
<title>atomic domain</title>
<ellipse fill="none" stroke="black" cx="321.84" cy="-90" rx="67.22" ry="18"/>
<text text-anchor="middle" x="321.84" y="-84.95" font-family="Times,serif" font-size="14.00">atomic domain</text>
</g>
<!-- atomic domain&#45;&gt;domain -->
<g id="edge22" class="edge">
<title>atomic domain&#45;&gt;domain</title>
<path fill="none" stroke="black" d="M351.13,-73.46C371.33,-62.76 398.25,-48.48 419.46,-37.23"/>
<polygon fill="black" stroke="black" points="420.86,-39.92 428.06,-32.14 417.59,-33.73 420.86,-39.92"/>
</g>
<!-- ACCP domain -->
<g id="node29" class="node">
<title>ACCP domain</title>
<ellipse fill="none" stroke="black" cx="184.84" cy="-162" rx="65.68" ry="18"/>
<text text-anchor="middle" x="184.84" y="-156.95" font-family="Times,serif" font-size="14.00">ACCP domain</text>
</g>
<!-- Mori domain&#45;&gt;ACCP domain -->
<g id="edge35" class="edge">
<title>Mori domain&#45;&gt;ACCP domain</title>
<path fill="none" stroke="black" d="M132.19,-216.41C140.78,-207.69 151.48,-196.85 160.98,-187.21"/>
<polygon fill="black" stroke="black" points="163.08,-190.05 167.6,-180.47 158.09,-185.13 163.08,-190.05"/>
</g>
<!-- Bezout domain&#45;&gt;GCD domain -->
<g id="edge34" class="edge">
<title>Bezout domain&#45;&gt;GCD domain</title>
<path fill="none" stroke="black" d="M446.1,-363.92C406.92,-352.19 349.39,-334.98 307.86,-322.56"/>
<polygon fill="black" stroke="black" points="308.98,-318.95 298.4,-319.43 306.98,-325.65 308.98,-318.95"/>
</g>
<!-- Bezout domain&#45;&gt;Prufer domain -->
<g id="edge29" class="edge">
<title>Bezout domain&#45;&gt;Prufer domain</title>
<path fill="none" stroke="black" d="M518.6,-361.28C531.95,-352.29 546.47,-339.67 553.84,-324 560.65,-309.52 561.91,-301.82 553.84,-288 544.44,-271.91 528.15,-260.32 511.75,-252.16"/>
<polygon fill="black" stroke="black" points="513.67,-248.74 503.13,-247.75 510.76,-255.1 513.67,-248.74"/>
</g>
<!-- characteristic 0 field&#45;&gt;perfect field -->
<g id="edge26" class="edge">
<title>characteristic 0 field&#45;&gt;perfect field</title>
<path fill="none" stroke="black" d="M555.48,-720.41C540.81,-710.81 522.19,-698.63 506.44,-688.33"/>
<polygon fill="black" stroke="black" points="508.83,-685.06 498.55,-682.51 505,-690.91 508.83,-685.06"/>
</g>
<!-- Schreier domain&#45;&gt;normal domain -->
<g id="edge27" class="edge">
<title>Schreier domain&#45;&gt;normal domain</title>
<path fill="none" stroke="black" d="M316.94,-216.05C322.84,-207.8 330.05,-197.7 336.6,-188.54"/>
<polygon fill="black" stroke="black" points="339.88,-190.96 342.85,-180.79 334.19,-186.89 339.88,-190.96"/>
</g>
<!-- quadratically closed field&#45;&gt;Pythagorean field -->
<g id="edge38" class="edge">
<title>quadratically closed field&#45;&gt;Pythagorean field</title>
<path fill="none" stroke="black" d="M330.61,-719.7C329.66,-712.24 328.51,-703.32 327.43,-694.97"/>
<polygon fill="black" stroke="black" points="330.79,-694.58 326.04,-685.1 323.84,-695.47 330.79,-694.58"/>
</g>
<!-- ACCP domain&#45;&gt;atomic domain -->
<g id="edge36" class="edge">
<title>ACCP domain&#45;&gt;atomic domain</title>
<path fill="none" stroke="black" d="M214.9,-145.64C234.62,-135.56 260.63,-122.28 282.05,-111.33"/>
<polygon fill="black" stroke="black" points="283.53,-113.99 290.84,-106.33 280.35,-107.76 283.53,-113.99"/>
</g>
<!-- valuation domain&#45;&gt;Bezout domain -->
<g id="edge40" class="edge">
<title>valuation domain&#45;&gt;Bezout domain</title>
<path fill="none" stroke="black" d="M409.82,-503.87C425.53,-479.35 454.57,-434.03 473.01,-405.26"/>
<polygon fill="black" stroke="black" points="476.37,-407.5 478.82,-397.19 470.48,-403.72 476.37,-407.5"/>
</g>
</g>
</svg>
