<?xml version="1.0" encoding="UTF-8" standalone="no"?>
<!DOCTYPE svg PUBLIC "-//W3C//DTD SVG 1.1//EN"
 "http://www.w3.org/Graphics/SVG/1.1/DTD/svg11.dtd">
<!-- Generated by graphviz version 8.1.0 (20230707.0739)
 -->
<!-- Pages: 1 -->
<svg width="605pt" height="517pt"
 viewBox="0.00 0.00 604.52 517.00" xmlns="http://www.w3.org/2000/svg" xmlns:xlink="http://www.w3.org/1999/xlink">
<g id="graph0" class="graph" transform="scale(1 1) rotate(0) translate(4 513)">
<g id="a_graph0"><a xlink:href="https://ringtheory.herokuapp.com/" xlink:title="Local ring properties&lt;br/&gt;(© Database of Ring Theory; Last updated 2024&#45;01&#45;14)">
<polygon fill="white" stroke="none" points="-4,4 -4,-513 600.52,-513 600.52,4 -4,4"/>
<text text-anchor="start" x="241.26" y="-491.7" font-family="Times,serif" font-size="14.00">Local ring properties</text>
<text text-anchor="start" x="146.39" y="-475.2" font-family="Times,serif" font-size="14.00">(© Database of Ring Theory; Last updated 2024&#45;01&#45;14)</text>
</a>
</g>
<!-- complete local -->
<g id="node1" class="node">
<title>complete local</title>
<ellipse fill="none" stroke="black" cx="114.6" cy="-306" rx="65.68" ry="18"/>
<text text-anchor="middle" x="114.6" y="-300.95" font-family="Times,serif" font-size="14.00">complete local</text>
</g>
<!-- Henselian local -->
<g id="node2" class="node">
<title>Henselian local</title>
<ellipse fill="none" stroke="black" cx="130.6" cy="-90" rx="68.24" ry="18"/>
<text text-anchor="middle" x="130.6" y="-84.95" font-family="Times,serif" font-size="14.00">Henselian local</text>
</g>
<!-- complete local&#45;&gt;Henselian local -->
<g id="edge1" class="edge">
<title>complete local&#45;&gt;Henselian local</title>
<path fill="none" stroke="black" d="M115.89,-287.85C118.64,-250.99 125.15,-163.92 128.51,-118.96"/>
<polygon fill="black" stroke="black" points="132.06,-119.47 129.32,-109.23 125.08,-118.94 132.06,-119.47"/>
</g>
<!-- local -->
<g id="node11" class="node">
<title>local</title>
<ellipse fill="none" stroke="black" cx="328.6" cy="-18" rx="28.83" ry="18"/>
<text text-anchor="middle" x="328.6" y="-12.95" font-family="Times,serif" font-size="14.00">local</text>
</g>
<!-- Henselian local&#45;&gt;local -->
<g id="edge13" class="edge">
<title>Henselian local&#45;&gt;local</title>
<path fill="none" stroke="black" d="M170.2,-75C206.3,-62.24 259.13,-43.56 293.69,-31.34"/>
<polygon fill="black" stroke="black" points="294.53,-34.41 302.79,-27.77 292.19,-27.81 294.53,-34.41"/>
</g>
<!-- field -->
<g id="node3" class="node">
<title>field</title>
<ellipse fill="none" stroke="black" cx="300.6" cy="-450" rx="27.81" ry="18"/>
<text text-anchor="middle" x="300.6" y="-444.95" font-family="Times,serif" font-size="14.00">field</text>
</g>
<!-- regular local -->
<g id="node4" class="node">
<title>regular local</title>
<ellipse fill="none" stroke="black" cx="393.6" cy="-378" rx="57.49" ry="18"/>
<text text-anchor="middle" x="393.6" y="-372.95" font-family="Times,serif" font-size="14.00">regular local</text>
</g>
<!-- field&#45;&gt;regular local -->
<g id="edge2" class="edge">
<title>field&#45;&gt;regular local</title>
<path fill="none" stroke="black" d="M318.1,-435.83C330.94,-426.17 348.7,-412.8 363.77,-401.46"/>
<polygon fill="black" stroke="black" points="365.39,-403.87 371.27,-395.06 361.18,-398.27 365.39,-403.87"/>
</g>
<!-- primary -->
<g id="node5" class="node">
<title>primary</title>
<ellipse fill="none" stroke="black" cx="40.6" cy="-378" rx="40.6" ry="18"/>
<text text-anchor="middle" x="40.6" y="-372.95" font-family="Times,serif" font-size="14.00">primary</text>
</g>
<!-- field&#45;&gt;primary -->
<g id="edge3" class="edge">
<title>field&#45;&gt;primary</title>
<path fill="none" stroke="black" d="M274.56,-443.14C234.68,-434.01 156.23,-415.4 90.6,-396 87.81,-395.18 84.95,-394.29 82.07,-393.38"/>
<polygon fill="black" stroke="black" points="83.28,-389.77 72.69,-390 81.11,-396.43 83.28,-389.77"/>
</g>
<!-- Noetherian complete local -->
<g id="node6" class="node">
<title>Noetherian complete local</title>
<ellipse fill="none" stroke="black" cx="208.6" cy="-378" rx="109.19" ry="18"/>
<text text-anchor="middle" x="208.6" y="-372.95" font-family="Times,serif" font-size="14.00">Noetherian complete local</text>
</g>
<!-- field&#45;&gt;Noetherian complete local -->
<g id="edge4" class="edge">
<title>field&#45;&gt;Noetherian complete local</title>
<path fill="none" stroke="black" d="M283.3,-435.83C271.06,-426.52 254.3,-413.77 239.76,-402.71"/>
<polygon fill="black" stroke="black" points="242.13,-399.35 232.05,-396.08 237.89,-404.92 242.13,-399.35"/>
</g>
<!-- valuation domain -->
<g id="node12" class="node">
<title>valuation domain</title>
<ellipse fill="none" stroke="black" cx="520.6" cy="-162" rx="75.92" ry="18"/>
<text text-anchor="middle" x="520.6" y="-156.95" font-family="Times,serif" font-size="14.00">valuation domain</text>
</g>
<!-- field&#45;&gt;valuation domain -->
<g id="edge12" class="edge">
<title>field&#45;&gt;valuation domain</title>
<path fill="none" stroke="black" d="M328.31,-447.09C363.42,-443.21 423.68,-431.47 459.6,-396 515.81,-340.49 522.28,-240.01 521.81,-191.17"/>
<polygon fill="black" stroke="black" points="525.29,-191.12 521.58,-181.2 518.29,-191.27 525.29,-191.12"/>
</g>
<!-- local complete intersection -->
<g id="node7" class="node">
<title>local complete intersection</title>
<ellipse fill="none" stroke="black" cx="364.6" cy="-306" rx="111.23" ry="18"/>
<text text-anchor="middle" x="364.6" y="-300.95" font-family="Times,serif" font-size="14.00">local complete intersection</text>
</g>
<!-- regular local&#45;&gt;local complete intersection -->
<g id="edge6" class="edge">
<title>regular local&#45;&gt;local complete intersection</title>
<path fill="none" stroke="black" d="M386.43,-359.7C383.24,-351.98 379.4,-342.71 375.84,-334.11"/>
<polygon fill="black" stroke="black" points="378.75,-333 371.69,-325.1 372.28,-335.68 378.75,-333"/>
</g>
<!-- primary&#45;&gt;complete local -->
<g id="edge14" class="edge">
<title>primary&#45;&gt;complete local</title>
<path fill="none" stroke="black" d="M57.4,-361.12C66.77,-352.24 78.65,-341.01 89.15,-331.08"/>
<polygon fill="black" stroke="black" points="90.99,-334.21 95.85,-324.8 86.18,-329.13 90.99,-334.21"/>
</g>
<!-- Noetherian complete local&#45;&gt;complete local -->
<g id="edge5" class="edge">
<title>Noetherian complete local&#45;&gt;complete local</title>
<path fill="none" stroke="black" d="M185.85,-360.05C173.66,-350.98 158.49,-339.68 145.27,-329.84"/>
<polygon fill="black" stroke="black" points="147.61,-326.47 137.5,-323.31 143.43,-332.09 147.61,-326.47"/>
</g>
<!-- local universally catenary -->
<g id="node10" class="node">
<title>local universally catenary</title>
<ellipse fill="none" stroke="black" cx="328.6" cy="-90" rx="106.11" ry="18"/>
<text text-anchor="middle" x="328.6" y="-84.95" font-family="Times,serif" font-size="14.00">local universally catenary</text>
</g>
<!-- Noetherian complete local&#45;&gt;local universally catenary -->
<g id="edge11" class="edge">
<title>Noetherian complete local&#45;&gt;local universally catenary</title>
<path fill="none" stroke="black" d="M204.8,-359.71C196.76,-318.44 182.26,-212.54 227.6,-144 237.24,-129.43 252.22,-118.61 267.73,-110.69"/>
<polygon fill="black" stroke="black" points="268.86,-113.55 276.4,-106.12 265.87,-107.22 268.86,-113.55"/>
</g>
<!-- local Gorenstein -->
<g id="node8" class="node">
<title>local Gorenstein</title>
<ellipse fill="none" stroke="black" cx="347.6" cy="-234" rx="71.82" ry="18"/>
<text text-anchor="middle" x="347.6" y="-228.95" font-family="Times,serif" font-size="14.00">local Gorenstein</text>
</g>
<!-- local complete intersection&#45;&gt;local Gorenstein -->
<g id="edge7" class="edge">
<title>local complete intersection&#45;&gt;local Gorenstein</title>
<path fill="none" stroke="black" d="M360.4,-287.7C358.57,-280.15 356.38,-271.12 354.33,-262.68"/>
<polygon fill="black" stroke="black" points="357.52,-262 351.76,-253.1 350.72,-263.65 357.52,-262"/>
</g>
<!-- local Cohen&#45;Macaulay -->
<g id="node9" class="node">
<title>local Cohen&#45;Macaulay</title>
<ellipse fill="none" stroke="black" cx="331.6" cy="-162" rx="95.37" ry="18"/>
<text text-anchor="middle" x="331.6" y="-156.95" font-family="Times,serif" font-size="14.00">local Cohen&#45;Macaulay</text>
</g>
<!-- local Gorenstein&#45;&gt;local Cohen&#45;Macaulay -->
<g id="edge8" class="edge">
<title>local Gorenstein&#45;&gt;local Cohen&#45;Macaulay</title>
<path fill="none" stroke="black" d="M343.65,-215.7C341.92,-208.15 339.86,-199.12 337.93,-190.68"/>
<polygon fill="black" stroke="black" points="341.15,-190.07 335.51,-181.1 334.33,-191.63 341.15,-190.07"/>
</g>
<!-- local Cohen&#45;Macaulay&#45;&gt;local universally catenary -->
<g id="edge9" class="edge">
<title>local Cohen&#45;Macaulay&#45;&gt;local universally catenary</title>
<path fill="none" stroke="black" d="M330.86,-143.7C330.54,-136.24 330.16,-127.32 329.8,-118.97"/>
<polygon fill="black" stroke="black" points="333.26,-118.95 329.34,-109.1 326.27,-119.25 333.26,-118.95"/>
</g>
<!-- local universally catenary&#45;&gt;local -->
<g id="edge10" class="edge">
<title>local universally catenary&#45;&gt;local</title>
<path fill="none" stroke="black" d="M328.6,-71.7C328.6,-64.24 328.6,-55.32 328.6,-46.97"/>
<polygon fill="black" stroke="black" points="332.1,-47.1 328.6,-37.1 325.1,-47.1 332.1,-47.1"/>
</g>
<!-- valuation domain&#45;&gt;local -->
<g id="edge15" class="edge">
<title>valuation domain&#45;&gt;local</title>
<path fill="none" stroke="black" d="M509.29,-143.99C495.63,-124.51 471.04,-92.63 443.6,-72 419.42,-53.82 388,-39.87 364.11,-30.85"/>
<polygon fill="black" stroke="black" points="365.65,-27.32 355.05,-27.18 363.25,-33.9 365.65,-27.32"/>
</g>
</g>
</svg>
