<?xml version="1.0" encoding="UTF-8" standalone="no"?>
<!DOCTYPE svg PUBLIC "-//W3C//DTD SVG 1.1//EN"
 "http://www.w3.org/Graphics/SVG/1.1/DTD/svg11.dtd">
<!-- Generated by graphviz version 3.0.0 (20220226.1711)
 -->
<!-- Pages: 1 -->
<svg width="583pt" height="514pt"
 viewBox="0.00 0.00 582.79 514.00" xmlns="http://www.w3.org/2000/svg" xmlns:xlink="http://www.w3.org/1999/xlink">
<g id="graph0" class="graph" transform="scale(1 1) rotate(0) translate(4 510)">
<g id="a_graph0"><a xlink:href="https://ringtheory.herokuapp.com/" xlink:title="Local ring properties&lt;br/&gt;(© Database of Ring Theory; Last updated 2022&#45;10&#45;12)">
<polygon fill="white" stroke="transparent" points="-4,4 -4,-510 578.79,-510 578.79,4 -4,4"/>
<text text-anchor="start" x="229.9" y="-490.8" font-family="Times,serif" font-size="14.00">Local ring properties</text>
<text text-anchor="start" x="134.9" y="-475.8" font-family="Times,serif" font-size="14.00">(© Database of Ring Theory; Last updated 2022&#45;10&#45;12)</text>
</a>
</g>
<!-- complete local -->
<g id="node1" class="node">
<title>complete local</title>
<ellipse fill="none" stroke="black" cx="110" cy="-306" rx="63.09" ry="18"/>
<text text-anchor="middle" x="110" y="-302.3" font-family="Times,serif" font-size="14.00">complete local</text>
</g>
<!-- Henselian local -->
<g id="node2" class="node">
<title>Henselian local</title>
<ellipse fill="none" stroke="black" cx="126" cy="-90" rx="65.79" ry="18"/>
<text text-anchor="middle" x="126" y="-86.3" font-family="Times,serif" font-size="14.00">Henselian local</text>
</g>
<!-- complete local&#45;&gt;Henselian local -->
<g id="edge1" class="edge">
<title>complete local&#45;&gt;Henselian local</title>
<path fill="none" stroke="black" d="M111.28,-287.85C114.05,-250.83 120.6,-163.18 123.95,-118.39"/>
<polygon fill="black" stroke="black" points="127.45,-118.47 124.71,-108.23 120.47,-117.94 127.45,-118.47"/>
</g>
<!-- local -->
<g id="node11" class="node">
<title>local</title>
<ellipse fill="none" stroke="black" cx="317" cy="-18" rx="27.9" ry="18"/>
<text text-anchor="middle" x="317" y="-14.3" font-family="Times,serif" font-size="14.00">local</text>
</g>
<!-- Henselian local&#45;&gt;local -->
<g id="edge13" class="edge">
<title>Henselian local&#45;&gt;local</title>
<path fill="none" stroke="black" d="M163.73,-75.17C198.61,-62.39 249.95,-43.57 283.43,-31.3"/>
<polygon fill="black" stroke="black" points="285.03,-34.44 293.21,-27.72 282.62,-27.87 285.03,-34.44"/>
</g>
<!-- field -->
<g id="node3" class="node">
<title>field</title>
<ellipse fill="none" stroke="black" cx="290" cy="-450" rx="27" ry="18"/>
<text text-anchor="middle" x="290" y="-446.3" font-family="Times,serif" font-size="14.00">field</text>
</g>
<!-- regular local -->
<g id="node4" class="node">
<title>regular local</title>
<ellipse fill="none" stroke="black" cx="379" cy="-378" rx="55.49" ry="18"/>
<text text-anchor="middle" x="379" y="-374.3" font-family="Times,serif" font-size="14.00">regular local</text>
</g>
<!-- field&#45;&gt;regular local -->
<g id="edge2" class="edge">
<title>field&#45;&gt;regular local</title>
<path fill="none" stroke="black" d="M306.74,-435.83C319.11,-426.1 336.26,-412.62 350.74,-401.22"/>
<polygon fill="black" stroke="black" points="353.21,-403.74 358.9,-394.8 348.88,-398.23 353.21,-403.74"/>
</g>
<!-- primary -->
<g id="node5" class="node">
<title>primary</title>
<ellipse fill="none" stroke="black" cx="39" cy="-378" rx="38.99" ry="18"/>
<text text-anchor="middle" x="39" y="-374.3" font-family="Times,serif" font-size="14.00">primary</text>
</g>
<!-- field&#45;&gt;primary -->
<g id="edge3" class="edge">
<title>field&#45;&gt;primary</title>
<path fill="none" stroke="black" d="M264.8,-443.15C226.24,-434.04 150.37,-415.46 87,-396 84.09,-395.11 81.1,-394.15 78.1,-393.16"/>
<polygon fill="black" stroke="black" points="79.16,-389.82 68.57,-389.92 76.91,-396.45 79.16,-389.82"/>
</g>
<!-- Noetherian complete local -->
<g id="node6" class="node">
<title>Noetherian complete local</title>
<ellipse fill="none" stroke="black" cx="201" cy="-378" rx="104.78" ry="18"/>
<text text-anchor="middle" x="201" y="-374.3" font-family="Times,serif" font-size="14.00">Noetherian complete local</text>
</g>
<!-- field&#45;&gt;Noetherian complete local -->
<g id="edge4" class="edge">
<title>field&#45;&gt;Noetherian complete local</title>
<path fill="none" stroke="black" d="M273.26,-435.83C261.22,-426.37 244.67,-413.35 230.44,-402.16"/>
<polygon fill="black" stroke="black" points="232.41,-399.25 222.39,-395.82 228.08,-404.76 232.41,-399.25"/>
</g>
<!-- valuation domain -->
<g id="node12" class="node">
<title>valuation domain</title>
<ellipse fill="none" stroke="black" cx="502" cy="-162" rx="72.59" ry="18"/>
<text text-anchor="middle" x="502" y="-158.3" font-family="Times,serif" font-size="14.00">valuation domain</text>
</g>
<!-- field&#45;&gt;valuation domain -->
<g id="edge12" class="edge">
<title>field&#45;&gt;valuation domain</title>
<path fill="none" stroke="black" d="M316.74,-446.84C350.62,-442.7 408.71,-430.69 443,-396 498.76,-339.57 504.24,-238.45 503.37,-190.14"/>
<polygon fill="black" stroke="black" points="506.86,-190.02 503.08,-180.13 499.87,-190.22 506.86,-190.02"/>
</g>
<!-- local complete intersection -->
<g id="node7" class="node">
<title>local complete intersection</title>
<ellipse fill="none" stroke="black" cx="351" cy="-306" rx="106.68" ry="18"/>
<text text-anchor="middle" x="351" y="-302.3" font-family="Times,serif" font-size="14.00">local complete intersection</text>
</g>
<!-- regular local&#45;&gt;local complete intersection -->
<g id="edge6" class="edge">
<title>regular local&#45;&gt;local complete intersection</title>
<path fill="none" stroke="black" d="M372.22,-360.05C369.07,-352.18 365.24,-342.62 361.71,-333.79"/>
<polygon fill="black" stroke="black" points="364.87,-332.26 357.91,-324.28 358.37,-334.86 364.87,-332.26"/>
</g>
<!-- primary&#45;&gt;complete local -->
<g id="edge14" class="edge">
<title>primary&#45;&gt;complete local</title>
<path fill="none" stroke="black" d="M54.75,-361.46C63.96,-352.39 75.76,-340.75 86.09,-330.57"/>
<polygon fill="black" stroke="black" points="88.63,-332.98 93.29,-323.47 83.72,-328 88.63,-332.98"/>
</g>
<!-- Noetherian complete local&#45;&gt;complete local -->
<g id="edge5" class="edge">
<title>Noetherian complete local&#45;&gt;complete local</title>
<path fill="none" stroke="black" d="M178.97,-360.05C166.97,-350.83 151.98,-339.29 139.04,-329.34"/>
<polygon fill="black" stroke="black" points="140.94,-326.39 130.88,-323.07 136.68,-331.94 140.94,-326.39"/>
</g>
<!-- local universally catenary -->
<g id="node10" class="node">
<title>local universally catenary</title>
<ellipse fill="none" stroke="black" cx="317" cy="-90" rx="101.28" ry="18"/>
<text text-anchor="middle" x="317" y="-86.3" font-family="Times,serif" font-size="14.00">local universally catenary</text>
</g>
<!-- Noetherian complete local&#45;&gt;local universally catenary -->
<g id="edge11" class="edge">
<title>Noetherian complete local&#45;&gt;local universally catenary</title>
<path fill="none" stroke="black" d="M197.27,-359.76C189.4,-318.6 175.23,-212.92 220,-144 229.56,-129.27 244.69,-118.3 260.18,-110.28"/>
<polygon fill="black" stroke="black" points="261.81,-113.38 269.3,-105.89 258.77,-107.07 261.81,-113.38"/>
</g>
<!-- local Gorenstein -->
<g id="node8" class="node">
<title>local Gorenstein</title>
<ellipse fill="none" stroke="black" cx="335" cy="-234" rx="68.79" ry="18"/>
<text text-anchor="middle" x="335" y="-230.3" font-family="Times,serif" font-size="14.00">local Gorenstein</text>
</g>
<!-- local complete intersection&#45;&gt;local Gorenstein -->
<g id="edge7" class="edge">
<title>local complete intersection&#45;&gt;local Gorenstein</title>
<path fill="none" stroke="black" d="M347.04,-287.7C345.28,-279.98 343.16,-270.71 341.19,-262.11"/>
<polygon fill="black" stroke="black" points="344.55,-261.07 338.91,-252.1 337.72,-262.63 344.55,-261.07"/>
</g>
<!-- local Cohen&#45;Macaulay -->
<g id="node9" class="node">
<title>local Cohen&#45;Macaulay</title>
<ellipse fill="none" stroke="black" cx="320" cy="-162" rx="90.98" ry="18"/>
<text text-anchor="middle" x="320" y="-158.3" font-family="Times,serif" font-size="14.00">local Cohen&#45;Macaulay</text>
</g>
<!-- local Gorenstein&#45;&gt;local Cohen&#45;Macaulay -->
<g id="edge8" class="edge">
<title>local Gorenstein&#45;&gt;local Cohen&#45;Macaulay</title>
<path fill="none" stroke="black" d="M331.29,-215.7C329.64,-207.98 327.65,-198.71 325.81,-190.11"/>
<polygon fill="black" stroke="black" points="329.18,-189.15 323.66,-180.1 322.33,-190.62 329.18,-189.15"/>
</g>
<!-- local Cohen&#45;Macaulay&#45;&gt;local universally catenary -->
<g id="edge9" class="edge">
<title>local Cohen&#45;Macaulay&#45;&gt;local universally catenary</title>
<path fill="none" stroke="black" d="M319.25,-143.7C318.92,-135.98 318.53,-126.71 318.16,-118.11"/>
<polygon fill="black" stroke="black" points="321.65,-117.95 317.73,-108.1 314.66,-118.25 321.65,-117.95"/>
</g>
<!-- local universally catenary&#45;&gt;local -->
<g id="edge10" class="edge">
<title>local universally catenary&#45;&gt;local</title>
<path fill="none" stroke="black" d="M317,-71.7C317,-63.98 317,-54.71 317,-46.11"/>
<polygon fill="black" stroke="black" points="320.5,-46.1 317,-36.1 313.5,-46.1 320.5,-46.1"/>
</g>
<!-- valuation domain&#45;&gt;local -->
<g id="edge15" class="edge">
<title>valuation domain&#45;&gt;local</title>
<path fill="none" stroke="black" d="M491.01,-144.06C477.74,-124.63 453.82,-92.81 427,-72 403.94,-54.12 373.88,-40.14 351.01,-31.04"/>
<polygon fill="black" stroke="black" points="351.97,-27.66 341.38,-27.33 349.45,-34.19 351.97,-27.66"/>
</g>
</g>
</svg>
